# xmcd CD database file
#
# Track frame offsets:
#	150
#	1748
#	21578
#	51885
#	52680
#	69763
#	73780
#	95563
#	116900
#	133290
#	156548
#	180618
#	185253
#	207773
#	226880
#	248495
#	276838
#	301005
#
# Disc length: 4331 seconds
#
# Revision: 2
# Processed by: cddbd v1.4b41PL1 Copyright (c) Steve Scherf et al.
# Submitted via: Feurio! 1.52 - http://www.feurio.com
#
DISCID=f310e912
DTITLE=Eminem - The Marshall Mathers
DYEAR=1900
DGENRE=
TTITLE0=Pubilc Service Annuncement 2000
TTITLE1=Kill You
TTITLE2=Stan > Featuring Dido
TTITLE3=Paul (skit)
TTITLE4=Who Knew
TTITLE5=Steve Berman
TTITLE6=The Way I Am
TTITLE7=The Real Slim Shady
TTITLE8=Remember Me? > Featuring RBX and Sticky Fingaz
TTITLE9=I`m Back
TTITLE10=Marshall Mathers
TTITLE11=Ken Kaniff (shit)
TTITLE12=Drug Ballad
TTITLE13=Amityville > Featuring Bizarre from D-12
TTITLE14=B * * * * Please II > Featuring Dr. Dre. Snoop Dogg. Xzibit and Nate 
TTITLE14=Dogg
TTITLE15=Kim
TTITLE16=Under The Influence > Featuring D-12
TTITLE17=Criminal
EXTD=
EXTT0=
EXTT1=
EXTT2=
EXTT3=
EXTT4=
EXTT5=
EXTT6=
EXTT7=
EXTT8=
EXTT9=
EXTT10=
EXTT11=
EXTT12=
EXTT13=
EXTT14=
EXTT15=
EXTT16=
EXTT17=
PLAYORDER=
